<?xml version="1.0" encoding="us-ascii" standalone="no"?><svg xmlns="http://www.w3.org/2000/svg" xmlns:xlink="http://www.w3.org/1999/xlink" contentStyleType="text/css" height="422px" preserveAspectRatio="none" style="width:570px;height:422px;background:#FFFFFF;" version="1.1" viewBox="0 0 570 422" width="570px" zoomAndPan="magnify"><defs/><g><ellipse cx="290.5" cy="20" fill="#222222" rx="10" ry="10" style="stroke:#222222;stroke-width:1.0;"/><rect fill="#F1F1F1" height="35.0938" rx="12.5" ry="12.5" style="stroke:#181818;stroke-width:0.5;" width="537" x="22" y="50"/><text fill="#000000" font-family="sans-serif" font-size="12" lengthAdjust="spacing" textLength="517" x="32" y="72.457">Measure Sensor Data (Heart Rate, Breathing Rate, Motion Intensity, Distance) from MR60BHA1</text><rect fill="#F1F1F1" height="35.0938" rx="12.5" ry="12.5" style="stroke:#181818;stroke-width:0.5;" width="214" x="183.5" y="105.0938"/><text fill="#000000" font-family="sans-serif" font-size="12" lengthAdjust="spacing" textLength="194" x="193.5" y="127.5508">Feed Data to Neural Network Model</text><rect fill="#F1F1F1" height="35.0938" rx="12.5" ry="12.5" style="stroke:#181818;stroke-width:0.5;" width="209" x="186" y="160.1875"/><text fill="#000000" font-family="sans-serif" font-size="12" lengthAdjust="spacing" textLength="189" x="196" y="182.6445">Classify Data as Human or Animal</text><polygon fill="#F1F1F1" points="246.5,215.2813,334.5,215.2813,346.5,227.2813,334.5,239.2813,246.5,239.2813,234.5,227.2813,246.5,215.2813" style="stroke:#181818;stroke-width:0.5;"/><text fill="#000000" font-family="sans-serif" font-size="11" lengthAdjust="spacing" textLength="88" x="246.5" y="231.7822">Confidence &gt; 0.5?</text><text fill="#000000" font-family="sans-serif" font-size="11" lengthAdjust="spacing" textLength="18" x="216.5" y="224.8643">yes</text><text fill="#000000" font-family="sans-serif" font-size="11" lengthAdjust="spacing" textLength="12" x="346.5" y="224.8643">no</text><rect fill="#F1F1F1" height="35.0938" rx="12.5" ry="12.5" style="stroke:#181818;stroke-width:0.5;" width="280" x="11" y="249.2813"/><text fill="#000000" font-family="sans-serif" font-size="12" lengthAdjust="spacing" textLength="260" x="21" y="271.7383">Publish Result: Human/Animal with Confidence</text><rect fill="#F1F1F1" height="35.0938" rx="12.5" ry="12.5" style="stroke:#181818;stroke-width:0.5;" width="238" x="311" y="249.2813"/><text fill="#000000" font-family="sans-serif" font-size="12" lengthAdjust="spacing" textLength="218" x="321" y="271.7383">Publish Result: Uncertain Classification</text><polygon fill="#F1F1F1" points="290.5,290.375,302.5,302.375,290.5,314.375,278.5,302.375,290.5,290.375" style="stroke:#181818;stroke-width:0.5;"/><rect fill="#F1F1F1" height="35.0938" rx="12.5" ry="12.5" style="stroke:#181818;stroke-width:0.5;" width="147" x="217" y="334.375"/><text fill="#000000" font-family="sans-serif" font-size="12" lengthAdjust="spacing" textLength="127" x="227" y="356.832">Publish to ROS 2 Node</text><ellipse cx="290.5" cy="400.4688" fill="none" rx="11" ry="11" style="stroke:#222222;stroke-width:1.0;"/><ellipse cx="290.5" cy="400.4688" fill="#222222" rx="6" ry="6" style="stroke:#222222;stroke-width:1.0;"/><line style="stroke:#181818;stroke-width:1.0;" x1="290.5" x2="290.5" y1="30" y2="50"/><polygon fill="#181818" points="286.5,40,290.5,50,294.5,40,290.5,44" style="stroke:#181818;stroke-width:1.0;"/><line style="stroke:#181818;stroke-width:1.0;" x1="290.5" x2="290.5" y1="85.0938" y2="105.0938"/><polygon fill="#181818" points="286.5,95.0938,290.5,105.0938,294.5,95.0938,290.5,99.0938" style="stroke:#181818;stroke-width:1.0;"/><line style="stroke:#181818;stroke-width:1.0;" x1="290.5" x2="290.5" y1="140.1875" y2="160.1875"/><polygon fill="#181818" points="286.5,150.1875,290.5,160.1875,294.5,150.1875,290.5,154.1875" style="stroke:#181818;stroke-width:1.0;"/><line style="stroke:#181818;stroke-width:1.0;" x1="234.5" x2="151" y1="227.2813" y2="227.2813"/><line style="stroke:#181818;stroke-width:1.0;" x1="151" x2="151" y1="227.2813" y2="249.2813"/><polygon fill="#181818" points="147,239.2813,151,249.2813,155,239.2813,151,243.2813" style="stroke:#181818;stroke-width:1.0;"/><line style="stroke:#181818;stroke-width:1.0;" x1="346.5" x2="430" y1="227.2813" y2="227.2813"/><line style="stroke:#181818;stroke-width:1.0;" x1="430" x2="430" y1="227.2813" y2="249.2813"/><polygon fill="#181818" points="426,239.2813,430,249.2813,434,239.2813,430,243.2813" style="stroke:#181818;stroke-width:1.0;"/><line style="stroke:#181818;stroke-width:1.0;" x1="151" x2="151" y1="284.375" y2="302.375"/><line style="stroke:#181818;stroke-width:1.0;" x1="151" x2="278.5" y1="302.375" y2="302.375"/><polygon fill="#181818" points="268.5,298.375,278.5,302.375,268.5,306.375,272.5,302.375" style="stroke:#181818;stroke-width:1.0;"/><line style="stroke:#181818;stroke-width:1.0;" x1="430" x2="430" y1="284.375" y2="302.375"/><line style="stroke:#181818;stroke-width:1.0;" x1="430" x2="302.5" y1="302.375" y2="302.375"/><polygon fill="#181818" points="312.5,298.375,302.5,302.375,312.5,306.375,308.5,302.375" style="stroke:#181818;stroke-width:1.0;"/><line style="stroke:#181818;stroke-width:1.0;" x1="290.5" x2="290.5" y1="195.2813" y2="215.2813"/><polygon fill="#181818" points="286.5,205.2813,290.5,215.2813,294.5,205.2813,290.5,209.2813" style="stroke:#181818;stroke-width:1.0;"/><line style="stroke:#181818;stroke-width:1.0;" x1="290.5" x2="290.5" y1="314.375" y2="334.375"/><polygon fill="#181818" points="286.5,324.375,290.5,334.375,294.5,324.375,290.5,328.375" style="stroke:#181818;stroke-width:1.0;"/><line style="stroke:#181818;stroke-width:1.0;" x1="290.5" x2="290.5" y1="369.4688" y2="389.4688"/><polygon fill="#181818" points="286.5,379.4688,290.5,389.4688,294.5,379.4688,290.5,383.4688" style="stroke:#181818;stroke-width:1.0;"/><!--SRC=[RP3TJiCm38NlynI-OvCc64XmKIJGVa3ZOcCQuW6yr6KHQJB5hgQzFKvQG4XSDNPzlkDZ5anYp0MyKU2O62I2ZTwJ5QXHq5HhGkuI3GEmr2QCLgGosA7G1EQ9K0ukV0prEegB0Lw2gCB9UG9BnuB1qXYQ55jOx-wcyzNi-ZxxRf7vsv7gufbta0D1YrQn15xDGkQtiIPlgcVImUKmkA4keTUFd6BwL7CTAU3oWcEAbfY92x7GCTJQfjfPKMUl_gvn5lFIfbhqzRdd8yEgQp601fy5rsAFNf9rd3FkaNKLVRI3MQ7cFpQ6njMaeOrhOBJuAU41ffUtZ-EyJu3HcNXi0Afjj_UE3x0ZxhnKlUrLxmad9mVuHTmRyamm2l5VwRkE944NOF4ddCf2xPfoz46IRvAAB9zoz_e6D-Q7zzs1ZOOhkP_ovQ8BObZYqNm1]--></g></svg>